<svg enable-background="new 0 0 101 32" viewBox="0 0 101 32" xmlns="http://www.w3.org/2000/svg" xmlns:xlink="http://www.w3.org/1999/xlink"><linearGradient id="a" gradientTransform="matrix(17.1465 0 0 18.2634 16316.0352 -4384.2515)" gradientUnits="userSpaceOnUse" x1="-950.7977" x2="-950.542" y1="240.3584" y2="241.3409"><stop offset="0" stop-color="#006884"/><stop offset="1" stop-color="#8ad1d0"/></linearGradient><linearGradient id="b" gradientTransform="matrix(12.0574 0 0 9.1317 11176.6455 -2585.3083)" gradientUnits="userSpaceOnUse" x1="-926.3077" x2="-925.316" y1="283.9959" y2="284.7017"><stop offset="0" stop-color="#24bbb6"/><stop offset="1" stop-color="#dbe692"/></linearGradient><linearGradient id="c" gradientTransform="matrix(7.3597 0 0 5.6976 6441.1426 -1902.64)" gradientUnits="userSpaceOnUse" x1="-872.256" x2="-872.256" y1="337.2393" y2="336.1505"><stop offset="0" stop-color="#fcc072"/><stop offset="1" stop-color="#f58a5b"/></linearGradient><linearGradient id="d" gradientTransform="matrix(11.9008 0 0 9.0537 11018.5635 -2560.905)" gradientUnits="userSpaceOnUse" x1="-925.0233" x2="-924.2305" y1="285.7646" y2="284.7073"><stop offset="0" stop-color="#712b8f"/><stop offset="1" stop-color="#ea1d27"/></linearGradient><path d="m97.5 31.6h-94c-1.7 0-3.1-1.4-3.1-3.1v-25c0-1.7 1.4-3.1 3.1-3.1h94c1.7 0 3.1 1.4 3.1 3.1v25c0 1.7-1.4 3.1-3.1 3.1z"/><path clip-rule="evenodd" d="m8.1 15.7v-8.2c0-.5.4-.9.8-.9s.5.1.8.2l15.1 8.3c.3.2.5.4.5.6s-.2.5-.5.6l-15.2 8.4c-.2.1-.4.2-.8.2s-.7-.4-.7-.9z" fill="url(#a)" fill-rule="evenodd"/><path clip-rule="evenodd" d="m17.9 15.8-9.2-9.2h.2c.4 0 .5.1.8.2l11 6.2z" fill="url(#b)" fill-rule="evenodd"/><path clip-rule="evenodd" d="m20.7 18.5-2.8-2.8 2.9-2.9 4 2.2c.3.2.5.4.5.6s-.2.5-.5.6z" fill="url(#c)" fill-rule="evenodd"/><path clip-rule="evenodd" d="m8.8 24.7 9.1-9.1 2.8 2.8-11 6c-.3.3-.5.3-.9.3z" fill="url(#d)" fill-rule="evenodd"/><g fill="#fff"><path clip-rule="evenodd" d="m56.1 26.8c-.4-.3-.7-.9-.9-1.2l1.3-.5c.1.2.2.4.4.6.3.3.8.6 1.3.6s1-.2 1.3-.6c.2-.4.4-.8.4-1.3v-.4c-.9 1.2-2.9 1-4-.2-1.2-1.2-1.2-3.4 0-4.6s2.9-1.3 3.9-.2v-.5h1.3v5.9c0 1.5-.5 2.3-1.3 2.9-.5.4-1.2.5-1.8.5-.7-.2-1.4-.5-1.9-1zm32.8.4 1.3-3.1-2.3-5.4h1.3l1.6 3.8 1.6-3.8h1.3l-3.6 8.5zm-6.4-3c-.4-.4-.5-.9-.5-1.5 0-.5.2-.9.5-1.2.5-.5 1.3-.8 2.2-.8.5 0 1 .1 1.4.3 0-.9-.8-1.3-1.4-1.3-.5 0-1.1.3-1.3.9l-1.2-.5c.2-.5.9-1.6 2.4-1.6.8 0 1.6.2 2 .8s.6 1.2.6 2v3.3h-1.3v-.6c-.2.2-.5.4-.7.5-.3.2-.7.2-1.1.2-.5 0-1.2-.1-1.6-.5zm-41.7-2.8c0-1.6 1.2-3.3 3.3-3.3 2 0 3.3 1.7 3.3 3.3s-1.2 3.3-3.3 3.3-3.3-1.8-3.3-3.3zm7 0c0-1.6 1.2-3.3 3.3-3.3 2 0 3.3 1.7 3.3 3.3s-1.2 3.3-3.3 3.3c-2 0-3.3-1.8-3.3-3.3zm-15.9 1.7c-2-2-1.9-5.2.1-7.2 1-1 2.3-1.5 3.6-1.5s2.5.5 3.4 1.4l-.9 1c-1.4-1.4-3.7-1.3-5 .1-1.4 1.5-1.4 3.7 0 5.2s3.8 1.6 5.2.1c.5-.5.6-1.1.7-1.7h-3.3v-1.4h4.6c.1.3.1.7.1 1.1 0 1.2-.5 2.3-1.3 3.1-.9.9-2.1 1.3-3.4 1.3s-2.7-.5-3.8-1.5zm33.2.5c-1.2-1.2-1.2-3.4 0-4.7 1.2-1.2 3.1-1.2 4.2 0 .4.4.6.9.9 1.5l-4.3 1.8c.2.5.8 1 1.6 1 .7 0 1.2-.2 1.6-.9l1.2.8c-.2.2-.3.3-.4.5-1.4 1.3-3.7 1.3-4.8 0zm8.1 1v-8.7h2.8c1.6 0 3 1.2 3 2.6s-1.2 2.6-2.7 2.6h-1.7v3.4zm6.6 0v-8.7h1.3v8.7zm-17.7-.2v-9.7h1.4v9.7zm23.9-2.4c-.3-.2-.8-.3-1.3-.3-.9 0-1.5.5-1.5 1s.5.9 1.1.9c.8 0 1.7-.7 1.7-1.6zm-40.1-.6c0-.9-.6-2-1.8-2s-1.8 1-1.8 2 .6 2 1.8 2c1.1-.1 1.8-1.1 1.8-2zm7 0c0-.9-.6-2-1.8-2s-1.8 1-1.8 2 .6 2 1.8 2 1.8-1.1 1.8-2zm7 .5c0-.1 0-.2.1-.2 0-.1 0-.2 0-.3s0-.2 0-.3v-.1c0-.1-.1-.2-.1-.3-.2-.8-.9-1.3-1.6-1.3-.9 0-1.7.9-1.7 2s.8 2 1.8 2c.6-.1 1.2-.6 1.5-1.5zm5.7-.7 2.9-1.2c-.3-.5-.8-.7-1.2-.7-1.1.1-1.8 1.3-1.7 1.9zm12-2.6c0-.8-.6-1.3-1.5-1.3h-1.6v2.7h1.6c.9 0 1.5-.6 1.5-1.4z" fill-rule="evenodd"/><path clip-rule="evenodd" d="m89.9 25.6c0-.1 0-.1 0 0z" fill-rule="evenodd"/><path clip-rule="evenodd" d="m89.9 25.6c0-.1 0-.1 0 0zm0 0c0-.1 0-.1 0 0z" fill-rule="evenodd"/><path clip-rule="evenodd" d="m90 25.6c0-.1 0-.1 0 0zm0 0c0-.1 0-.1 0 0z" fill-rule="evenodd"/><path clip-rule="evenodd" d="m90 25.6c0-.1 0-.1 0 0zm0-.1c0 .1 0 .1 0 0z" fill-rule="evenodd"/><path clip-rule="evenodd" d="m90 25.6c0-.1 0-.1 0 0z" fill-rule="evenodd"/><path clip-rule="evenodd" d="m90 25.6c0-.1 0-.1 0 0zm0-.1c0 .1 0 .1 0 0z" fill-rule="evenodd"/><path clip-rule="evenodd" d="m90 25.6c0-.1 0-.1 0 0z" fill-rule="evenodd"/><path clip-rule="evenodd" d="m90.1 25.6c0-.1 0-.1 0 0z" fill-rule="evenodd"/><path d="m30.8 8.3c0-1.4 1-2.3 2.3-2.3.9 0 1.4.4 1.8.9l-.6.4c-.2-.3-.6-.5-1.2-.5-.9 0-1.5.6-1.5 1.6s.6 1.6 1.5 1.6c.5 0 .9-.2 1-.4v-.8h-1.3v-.7h2.2v1.6c-.4.5-1 .8-1.8.8-1.3 0-2.4-.9-2.4-2.2z"/><path d="m35.9 10.5v-4.4h3v.7h-2.3v1.1h2.2v.7h-2.2v1.2h2.3v.7z"/><path d="m41.1 10.5v-3.7h-1.3v-.7h3.4v.7h-1.3v3.7z"/><path d="m45.9 10.5v-4.4h.8v4.4z"/><path d="m48.8 10.5v-3.7h-1.3v-.7h3.4v.7h-1.3v3.7z"/><path d="m53.4 8.3c0-1.3.9-2.3 2.3-2.3s2.3.9 2.3 2.3-.9 2.3-2.3 2.3-2.3-1.1-2.3-2.3zm3.7 0c0-.9-.5-1.6-1.5-1.6-.9 0-1.5.7-1.5 1.6s.5 1.6 1.5 1.6 1.5-.8 1.5-1.6z"/><path d="m61.9 10.5-2.3-3.1v3.1h-.8v-4.4h.8l2.3 3v-3h.8v4.4z"/></g></svg>